<svg width="887" height="373" viewBox="0 0 887 373" fill="none" xmlns="http://www.w3.org/2000/svg">
<g clip-path="url(#clip0_255_595)">
<path d="M214.318 261.14C214.318 263.35 213.805 265.384 212.78 267.241C211.766 269.098 210.25 270.573 208.234 271.667C206.217 272.761 203.762 273.308 200.868 273.308C197.94 273.308 195.462 272.738 193.434 271.599C191.406 270.459 189.896 268.961 188.905 267.104C187.925 265.247 187.436 263.259 187.436 261.14C187.436 259.009 187.925 257.021 188.905 255.175C189.885 253.318 191.389 251.826 193.417 250.698C195.456 249.558 197.94 248.989 200.868 248.989C203.056 248.989 205.004 249.313 206.713 249.963C208.433 250.612 209.846 251.495 210.951 252.612C212.056 253.717 212.894 255.01 213.463 256.491C214.033 257.961 214.318 259.51 214.318 261.14ZM207.038 261.14C207.038 260.251 206.907 259.442 206.645 258.713C206.382 257.972 205.984 257.334 205.448 256.799C204.924 256.252 204.28 255.83 203.517 255.534C202.754 255.227 201.871 255.073 200.868 255.073C198.954 255.073 197.45 255.631 196.356 256.748C195.263 257.864 194.716 259.328 194.716 261.14C194.716 262.951 195.263 264.421 196.356 265.549C197.462 266.665 198.965 267.224 200.868 267.224C202.178 267.224 203.295 266.967 204.218 266.455C205.141 265.931 205.841 265.213 206.32 264.301C206.798 263.378 207.038 262.325 207.038 261.14ZM237.507 255.603L229.595 273H225.049L217.307 255.603H223.921L227.527 264.711L231.526 255.603H237.507ZM258.304 265.788H246.051C246.29 266.848 246.877 267.714 247.811 268.386C248.745 269.058 249.805 269.394 250.99 269.394C253.064 269.394 255.354 268.813 257.86 267.651V271.462C256.96 271.929 255.866 272.356 254.579 272.744C253.303 273.12 251.674 273.308 249.691 273.308C247.549 273.308 245.726 272.909 244.222 272.111C242.718 271.314 241.591 270.231 240.839 268.864C240.098 267.497 239.728 265.948 239.728 264.216C239.728 262.507 240.098 260.98 240.839 259.636C241.591 258.28 242.718 257.22 244.222 256.457C245.726 255.682 247.549 255.295 249.691 255.295C251.104 255.295 252.465 255.603 253.776 256.218C255.097 256.822 256.18 257.819 257.023 259.208C257.877 260.587 258.304 262.37 258.304 264.558V265.788ZM252.528 262.746C252.528 261.63 252.249 260.741 251.691 260.08C251.144 259.408 250.352 259.072 249.315 259.072C248.29 259.072 247.458 259.414 246.82 260.097C246.193 260.769 245.88 261.652 245.88 262.746H252.528ZM278.042 256.542L275.769 262.712C274.835 261.823 273.889 261.379 272.932 261.379C272.066 261.379 271.314 261.675 270.676 262.268C270.049 262.849 269.446 263.931 268.865 265.515V273H262.712V255.603H268.865V259.807C269.252 258.77 269.936 257.762 270.915 256.782C271.895 255.791 273.046 255.295 274.367 255.295C275.062 255.295 275.666 255.397 276.179 255.603C276.703 255.808 277.324 256.121 278.042 256.542ZM287.371 273H281.202V249.313H287.371V273ZM310.869 265.788H298.615C298.854 266.848 299.441 267.714 300.375 268.386C301.31 269.058 302.369 269.394 303.554 269.394C305.628 269.394 307.918 268.813 310.424 267.651V271.462C309.524 271.929 308.431 272.356 307.143 272.744C305.867 273.12 304.238 273.308 302.255 273.308C300.113 273.308 298.291 272.909 296.787 272.111C295.283 271.314 294.155 270.231 293.403 268.864C292.662 267.497 292.292 265.948 292.292 264.216C292.292 262.507 292.662 260.98 293.403 259.636C294.155 258.28 295.283 257.22 296.787 256.457C298.291 255.682 300.113 255.295 302.255 255.295C303.668 255.295 305.03 255.603 306.34 256.218C307.661 256.822 308.744 257.819 309.587 259.208C310.441 260.587 310.869 262.37 310.869 264.558V265.788ZM305.092 262.746C305.092 261.63 304.813 260.741 304.255 260.08C303.708 259.408 302.916 259.072 301.879 259.072C300.854 259.072 300.022 259.414 299.384 260.097C298.758 260.769 298.444 261.652 298.444 262.746H305.092ZM332.811 259.311H329.769C330.84 260.245 331.375 261.39 331.375 262.746C331.375 263.464 331.221 264.153 330.914 264.814C330.617 265.475 330.173 266.062 329.581 266.574C329 267.087 328.276 267.508 327.41 267.839C326.556 268.158 325.576 268.352 324.471 268.42C323.047 268.477 322.335 268.859 322.335 269.565C322.335 269.838 322.426 270.038 322.608 270.163C322.79 270.288 323.075 270.385 323.463 270.454C323.861 270.511 324.528 270.579 325.462 270.659C326.522 270.75 327.507 270.909 328.419 271.137C329.33 271.365 330.179 271.844 330.965 272.573C331.751 273.302 332.144 274.344 332.144 275.7C332.144 276.783 331.848 277.74 331.255 278.571C330.674 279.403 329.729 280.052 328.419 280.52C327.108 280.987 325.377 281.22 323.223 281.22C320.124 281.22 317.846 280.804 316.387 279.973C314.94 279.141 314.217 278.03 314.217 276.64C314.217 276.264 314.308 275.831 314.49 275.341C314.684 274.851 315.083 274.379 315.687 273.923C316.302 273.467 317.191 273.16 318.353 273C317.942 272.852 317.589 272.567 317.293 272.146C316.997 271.713 316.849 271.263 316.849 270.795C316.849 270.192 317.054 269.593 317.464 269.001C317.886 268.409 318.563 268.027 319.498 267.856C318.199 267.514 317.077 266.87 316.131 265.925C315.185 264.979 314.713 263.754 314.713 262.25C314.713 261.111 314.929 260.114 315.362 259.26C315.806 258.405 316.416 257.71 317.191 257.175C317.965 256.639 318.865 256.246 319.891 255.996C320.916 255.734 322.038 255.603 323.257 255.603H332.811V259.311ZM326.009 262.25C326.009 261.373 325.707 260.673 325.103 260.148C324.511 259.613 323.844 259.345 323.104 259.345C322.158 259.345 321.412 259.664 320.865 260.302C320.329 260.94 320.062 261.612 320.062 262.319C320.062 262.809 320.176 263.264 320.403 263.686C320.643 264.108 320.973 264.449 321.395 264.711C321.828 264.962 322.34 265.087 322.933 265.087C323.821 265.087 324.556 264.808 325.137 264.25C325.718 263.692 326.009 263.025 326.009 262.25ZM327.239 276.247C327.239 275.484 326.829 274.988 326.009 274.76C325.2 274.544 324.363 274.436 323.497 274.436C322.073 274.436 321.041 274.584 320.403 274.88C319.777 275.188 319.463 275.672 319.463 276.333C319.463 277.631 320.774 278.281 323.394 278.281C324.568 278.281 325.502 278.11 326.197 277.768C326.892 277.438 327.239 276.931 327.239 276.247ZM356.051 264.182C356.051 265.344 355.886 266.466 355.556 267.548C355.225 268.631 354.718 269.611 354.035 270.488C353.363 271.354 352.491 272.043 351.42 272.556C350.361 273.057 349.124 273.308 347.712 273.308C346.572 273.308 345.672 273.188 345.011 272.949C344.362 272.709 343.713 272.39 343.063 271.992V280.913H336.911V255.603H343.063V257.175C343.678 256.639 344.356 256.195 345.097 255.842C345.849 255.477 346.863 255.295 348.139 255.295C349.404 255.295 350.645 255.608 351.864 256.235C353.084 256.861 354.086 257.841 354.872 259.174C355.658 260.496 356.051 262.165 356.051 264.182ZM349.574 264.318C349.574 263.27 349.409 262.421 349.079 261.772C348.748 261.111 348.321 260.638 347.797 260.354C347.273 260.057 346.732 259.909 346.174 259.909C345.444 259.909 344.846 260.029 344.379 260.268C343.912 260.496 343.473 260.786 343.063 261.14V267.788C343.28 267.902 343.508 268.033 343.747 268.181C343.997 268.317 344.242 268.437 344.482 268.54C344.732 268.642 344.994 268.728 345.268 268.796C345.553 268.864 345.855 268.898 346.174 268.898C347.142 268.898 347.951 268.488 348.6 267.668C349.25 266.848 349.574 265.731 349.574 264.318ZM367.141 273H360.972V249.313H367.141V273ZM390.844 272.128C389.944 272.482 389.112 272.766 388.349 272.983C387.585 273.199 386.668 273.308 385.597 273.308C384.583 273.308 383.877 273.131 383.478 272.778C383.079 272.413 382.794 271.975 382.623 271.462C381.963 271.997 381.228 272.442 380.419 272.795C379.61 273.137 378.55 273.308 377.24 273.308C375.975 273.308 374.95 273.091 374.164 272.658C373.389 272.214 372.842 271.661 372.523 271C372.216 270.328 372.062 269.639 372.062 268.933C372.062 267.862 372.33 266.979 372.865 266.284C373.412 265.577 374.141 265.002 375.053 264.558C375.964 264.113 377.172 263.652 378.676 263.173C379.53 262.9 380.174 262.695 380.607 262.558C381.051 262.41 381.382 262.296 381.598 262.216C381.815 262.137 382.042 262.034 382.282 261.909C382.282 261.066 382.111 260.405 381.769 259.926C381.427 259.448 380.687 259.208 379.547 259.208C378.203 259.208 376.955 259.505 375.805 260.097C374.654 260.69 373.6 261.453 372.643 262.387V257.67C373.406 257.124 374.232 256.679 375.121 256.337C376.01 255.984 376.938 255.722 377.907 255.551C378.875 255.38 379.855 255.295 380.846 255.295C383.364 255.295 385.255 255.785 386.52 256.765C387.796 257.733 388.434 259.072 388.434 260.781V267.497C388.434 268.135 388.491 268.614 388.605 268.933C388.73 269.24 388.952 269.394 389.271 269.394C389.659 269.394 390.183 269.229 390.844 268.898V272.128ZM382.282 268.796V264.677C380.823 265.27 379.758 265.805 379.086 266.284C378.414 266.751 378.078 267.389 378.078 268.198C378.078 268.779 378.243 269.223 378.573 269.531C378.915 269.838 379.308 269.992 379.752 269.992C380.174 269.992 380.59 269.878 381 269.65C381.421 269.411 381.849 269.126 382.282 268.796ZM407.915 271.992C407.277 272.299 406.394 272.596 405.266 272.88C404.15 273.165 403.079 273.308 402.053 273.308C397.621 273.308 395.405 271.143 395.405 266.813V259.875H392.62V258.798L400.874 250.39H401.575V255.603H407.454V259.875H401.575V265.446C401.575 266.096 401.615 266.62 401.694 267.019C401.774 267.417 401.996 267.753 402.361 268.027C402.737 268.289 403.301 268.42 404.053 268.42C405.033 268.42 406.32 268.01 407.915 267.189V271.992ZM423.688 253.723C422.753 253.506 421.996 253.398 421.415 253.398C420.754 253.398 420.235 253.614 419.859 254.047C419.495 254.48 419.313 255.096 419.313 255.893V256.508H422.423V260.678H419.313V273H413.143V260.678H410.306V256.508H413.143V256.201C413.143 254.982 413.377 253.831 413.844 252.749C414.322 251.655 415.114 250.755 416.219 250.048C417.324 249.342 418.783 248.989 420.594 248.989C421.62 248.989 422.651 249.097 423.688 249.313V253.723ZM445.561 264.284C445.561 266.016 445.185 267.56 444.433 268.916C443.681 270.271 442.553 271.342 441.05 272.128C439.557 272.915 437.734 273.308 435.581 273.308C433.427 273.308 431.599 272.915 430.095 272.128C428.602 271.342 427.48 270.271 426.728 268.916C425.988 267.56 425.617 266.016 425.617 264.284C425.617 262.974 425.822 261.783 426.233 260.712C426.654 259.641 427.286 258.696 428.13 257.875C428.984 257.044 430.032 256.406 431.274 255.961C432.516 255.517 433.952 255.295 435.581 255.295C437.221 255.295 438.668 255.523 439.922 255.979C441.186 256.423 442.229 257.049 443.049 257.858C443.881 258.667 444.507 259.613 444.929 260.695C445.35 261.778 445.561 262.974 445.561 264.284ZM439.084 264.284C439.084 262.906 438.782 261.829 438.178 261.054C437.586 260.268 436.72 259.875 435.581 259.875C434.453 259.875 433.587 260.268 432.983 261.054C432.391 261.829 432.094 262.906 432.094 264.284C432.094 265.651 432.396 266.734 433 267.531C433.604 268.329 434.464 268.728 435.581 268.728C436.72 268.728 437.586 268.334 438.178 267.548C438.782 266.751 439.084 265.663 439.084 264.284ZM465.47 256.542L463.197 262.712C462.262 261.823 461.317 261.379 460.36 261.379C459.494 261.379 458.742 261.675 458.104 262.268C457.477 262.849 456.873 263.931 456.292 265.515V273H450.14V255.603H456.292V259.807C456.68 258.77 457.363 257.762 458.343 256.782C459.323 255.791 460.474 255.295 461.795 255.295C462.49 255.295 463.094 255.397 463.607 255.603C464.131 255.808 464.752 256.121 465.47 256.542ZM499.836 273H493.684V263.72C493.684 262.49 493.478 261.573 493.068 260.969C492.67 260.354 492.031 260.046 491.154 260.046C490.3 260.046 489.599 260.308 489.052 260.832C488.505 261.345 487.958 261.994 487.412 262.78V273H481.259V263.72C481.259 262.547 481.071 261.641 480.695 261.003C480.319 260.365 479.653 260.046 478.696 260.046C478.24 260.046 477.818 260.137 477.431 260.319C477.055 260.502 476.747 260.707 476.508 260.935C476.269 261.162 475.978 261.499 475.637 261.943C475.295 262.387 475.078 262.666 474.987 262.78V273H468.835V255.603H474.987V258.098C475.91 257.118 476.85 256.406 477.807 255.961C478.764 255.517 479.869 255.295 481.122 255.295C481.715 255.295 482.279 255.352 482.814 255.466C483.35 255.568 483.874 255.751 484.387 256.013C484.911 256.275 485.384 256.634 485.805 257.089C486.227 257.545 486.563 258.075 486.813 258.679C487.805 257.562 488.83 256.719 489.89 256.149C490.961 255.58 492.191 255.295 493.581 255.295C494.971 255.295 496.133 255.574 497.067 256.132C498.013 256.691 498.708 257.5 499.152 258.559C499.608 259.607 499.836 260.883 499.836 262.387V273ZM543.703 273H536.388L534.457 268.198H524.169L522.204 273H514.889L525.365 249.313H533.261L543.703 273ZM532.816 264.079L529.347 255.432L525.844 264.079H532.816ZM560.842 267.924C560.842 269.519 560.256 270.818 559.082 271.821C557.92 272.812 556.188 273.308 553.887 273.308C552.599 273.308 551.454 273.194 550.452 272.966C549.449 272.727 548.355 272.39 547.171 271.958V267.583C548.207 268.175 549.107 268.625 549.871 268.933C550.634 269.24 551.472 269.394 552.383 269.394C553.921 269.394 554.69 268.972 554.69 268.129C554.69 267.845 554.576 267.594 554.348 267.377C554.132 267.15 553.744 266.899 553.186 266.625C552.639 266.341 551.904 266.005 550.982 265.617C549.842 265.116 548.874 264.444 548.076 263.601C547.279 262.757 546.88 261.726 546.88 260.507C546.88 259.641 547.142 258.81 547.666 258.012C548.202 257.215 549.005 256.565 550.076 256.064C551.147 255.551 552.44 255.295 553.955 255.295C554.32 255.295 554.781 255.323 555.34 255.38C555.909 255.426 556.621 255.557 557.476 255.773C558.342 255.99 559.162 256.298 559.937 256.696V260.952C559.572 260.735 559.265 260.553 559.014 260.405C558.775 260.257 558.45 260.091 558.04 259.909C557.63 259.727 557.145 259.567 556.587 259.431C556.04 259.283 555.476 259.208 554.895 259.208C554.189 259.208 553.705 259.345 553.443 259.619C553.181 259.892 553.049 260.166 553.049 260.439C553.049 260.724 553.186 260.992 553.46 261.242C553.733 261.481 554.343 261.783 555.288 262.148C556.655 262.672 557.749 263.213 558.57 263.771C559.39 264.318 559.971 264.922 560.313 265.583C560.666 266.244 560.842 267.024 560.842 267.924ZM579.196 267.924C579.196 269.519 578.609 270.818 577.435 271.821C576.273 272.812 574.541 273.308 572.24 273.308C570.953 273.308 569.808 273.194 568.805 272.966C567.802 272.727 566.709 272.39 565.524 271.958V267.583C566.561 268.175 567.461 268.625 568.224 268.933C568.987 269.24 569.825 269.394 570.736 269.394C572.274 269.394 573.043 268.972 573.043 268.129C573.043 267.845 572.929 267.594 572.701 267.377C572.485 267.15 572.098 266.899 571.539 266.625C570.992 266.341 570.258 266.005 569.335 265.617C568.195 265.116 567.227 264.444 566.43 263.601C565.632 262.757 565.233 261.726 565.233 260.507C565.233 259.641 565.495 258.81 566.019 258.012C566.555 257.215 567.358 256.565 568.429 256.064C569.5 255.551 570.793 255.295 572.308 255.295C572.673 255.295 573.134 255.323 573.693 255.38C574.262 255.426 574.974 255.557 575.829 255.773C576.695 255.99 577.515 256.298 578.29 256.696V260.952C577.925 260.735 577.618 260.553 577.367 260.405C577.128 260.257 576.803 260.091 576.393 259.909C575.983 259.727 575.499 259.567 574.94 259.431C574.393 259.283 573.829 259.208 573.248 259.208C572.542 259.208 572.058 259.345 571.796 259.619C571.534 259.892 571.403 260.166 571.403 260.439C571.403 260.724 571.539 260.992 571.813 261.242C572.086 261.481 572.696 261.783 573.641 262.148C575.009 262.672 576.102 263.213 576.923 263.771C577.743 264.318 578.324 264.922 578.666 265.583C579.019 266.244 579.196 267.024 579.196 267.924ZM597.549 267.924C597.549 269.519 596.962 270.818 595.788 271.821C594.626 272.812 592.895 273.308 590.593 273.308C589.306 273.308 588.161 273.194 587.158 272.966C586.156 272.727 585.062 272.39 583.877 271.958V267.583C584.914 268.175 585.814 268.625 586.577 268.933C587.34 269.24 588.178 269.394 589.089 269.394C590.627 269.394 591.396 268.972 591.396 268.129C591.396 267.845 591.282 267.594 591.055 267.377C590.838 267.15 590.451 266.899 589.892 266.625C589.346 266.341 588.611 266.005 587.688 265.617C586.549 265.116 585.58 264.444 584.783 263.601C583.985 262.757 583.586 261.726 583.586 260.507C583.586 259.641 583.848 258.81 584.372 258.012C584.908 257.215 585.711 256.565 586.782 256.064C587.853 255.551 589.146 255.295 590.662 255.295C591.026 255.295 591.488 255.323 592.046 255.38C592.615 255.426 593.328 255.557 594.182 255.773C595.048 255.99 595.868 256.298 596.643 256.696V260.952C596.278 260.735 595.971 260.553 595.72 260.405C595.481 260.257 595.156 260.091 594.746 259.909C594.336 259.727 593.852 259.567 593.293 259.431C592.746 259.283 592.183 259.208 591.601 259.208C590.895 259.208 590.411 259.345 590.149 259.619C589.887 259.892 589.756 260.166 589.756 260.439C589.756 260.724 589.892 260.992 590.166 261.242C590.439 261.481 591.049 261.783 591.995 262.148C593.362 262.672 594.455 263.213 595.276 263.771C596.096 264.318 596.677 264.922 597.019 265.583C597.372 266.244 597.549 267.024 597.549 267.924ZM621.507 264.284C621.507 266.016 621.131 267.56 620.379 268.916C619.627 270.271 618.5 271.342 616.996 272.128C615.503 272.915 613.68 273.308 611.527 273.308C609.374 273.308 607.545 272.915 606.041 272.128C604.549 271.342 603.426 270.271 602.674 268.916C601.934 267.56 601.563 266.016 601.563 264.284C601.563 262.974 601.769 261.783 602.179 260.712C602.6 259.641 603.233 258.696 604.076 257.875C604.93 257.044 605.978 256.406 607.22 255.961C608.462 255.517 609.898 255.295 611.527 255.295C613.167 255.295 614.614 255.523 615.868 255.979C617.132 256.423 618.175 257.049 618.995 257.858C619.827 258.667 620.453 259.613 620.875 260.695C621.297 261.778 621.507 262.974 621.507 264.284ZM615.03 264.284C615.03 262.906 614.728 261.829 614.125 261.054C613.532 260.268 612.666 259.875 611.527 259.875C610.399 259.875 609.533 260.268 608.929 261.054C608.337 261.829 608.041 262.906 608.041 264.284C608.041 265.651 608.342 266.734 608.946 267.531C609.55 268.329 610.41 268.728 611.527 268.728C612.666 268.728 613.532 268.334 614.125 267.548C614.728 266.751 615.03 265.663 615.03 264.284ZM641.023 272.197C640.51 272.39 639.969 272.573 639.399 272.744C638.829 272.903 638.186 273.034 637.468 273.137C636.761 273.251 635.987 273.308 635.144 273.308C633.241 273.308 631.629 272.989 630.307 272.351C628.997 271.701 627.983 270.892 627.265 269.924C626.559 268.944 626.069 267.947 625.796 266.933C625.522 265.919 625.385 265.025 625.385 264.25C625.385 263.475 625.522 262.581 625.796 261.567C626.08 260.553 626.57 259.573 627.265 258.627C627.96 257.682 628.963 256.89 630.273 256.252C631.595 255.614 633.218 255.295 635.144 255.295C636.431 255.295 637.479 255.386 638.288 255.568C639.097 255.751 639.917 255.996 640.749 256.303V261.14C638.744 260.502 637.177 260.183 636.049 260.183C634.956 260.183 633.982 260.513 633.127 261.174C632.284 261.835 631.862 262.86 631.862 264.25C631.862 265.173 632.073 265.953 632.495 266.591C632.916 267.218 633.452 267.679 634.101 267.976C634.751 268.272 635.4 268.42 636.049 268.42C636.665 268.42 637.365 268.329 638.151 268.146C638.938 267.964 639.895 267.702 641.023 267.36V272.197ZM651.412 251.586C651.412 252.304 651.155 252.914 650.643 253.415C650.13 253.916 649.521 254.167 648.814 254.167C648.336 254.167 647.897 254.053 647.498 253.825C647.111 253.597 646.803 253.29 646.575 252.902C646.348 252.504 646.234 252.065 646.234 251.586C646.234 250.88 646.484 250.271 646.986 249.758C647.487 249.245 648.096 248.989 648.814 248.989C649.521 248.989 650.13 249.245 650.643 249.758C651.155 250.271 651.412 250.88 651.412 251.586ZM651.907 273H645.738V255.603H651.907V273ZM675.61 272.128C674.71 272.482 673.878 272.766 673.115 272.983C672.351 273.199 671.434 273.308 670.363 273.308C669.349 273.308 668.643 273.131 668.244 272.778C667.845 272.413 667.56 271.975 667.389 271.462C666.729 271.997 665.994 272.442 665.185 272.795C664.376 273.137 663.316 273.308 662.006 273.308C660.742 273.308 659.716 273.091 658.93 272.658C658.155 272.214 657.608 271.661 657.289 271C656.982 270.328 656.828 269.639 656.828 268.933C656.828 267.862 657.096 266.979 657.631 266.284C658.178 265.577 658.907 265.002 659.819 264.558C660.73 264.113 661.938 263.652 663.442 263.173C664.296 262.9 664.94 262.695 665.373 262.558C665.817 262.41 666.148 262.296 666.364 262.216C666.581 262.137 666.808 262.034 667.048 261.909C667.048 261.066 666.877 260.405 666.535 259.926C666.193 259.448 665.453 259.208 664.313 259.208C662.969 259.208 661.721 259.505 660.571 260.097C659.42 260.69 658.366 261.453 657.409 262.387V257.67C658.172 257.124 658.998 256.679 659.887 256.337C660.776 255.984 661.704 255.722 662.673 255.551C663.641 255.38 664.621 255.295 665.612 255.295C668.13 255.295 670.021 255.785 671.286 256.765C672.562 257.733 673.2 259.072 673.2 260.781V267.497C673.2 268.135 673.257 268.614 673.371 268.933C673.496 269.24 673.718 269.394 674.037 269.394C674.425 269.394 674.949 269.229 675.61 268.898V272.128ZM667.048 268.796V264.677C665.589 265.27 664.524 265.805 663.852 266.284C663.18 266.751 662.844 267.389 662.844 268.198C662.844 268.779 663.009 269.223 663.339 269.531C663.681 269.838 664.074 269.992 664.518 269.992C664.94 269.992 665.356 269.878 665.766 269.65C666.187 269.411 666.615 269.126 667.048 268.796ZM692.681 271.992C692.043 272.299 691.16 272.596 690.032 272.88C688.916 273.165 687.845 273.308 686.819 273.308C682.387 273.308 680.171 271.143 680.171 266.813V259.875H677.386V258.798L685.64 250.39H686.341V255.603H692.22V259.875H686.341V265.446C686.341 266.096 686.381 266.62 686.46 267.019C686.54 267.417 686.762 267.753 687.127 268.027C687.503 268.289 688.067 268.42 688.819 268.42C689.799 268.42 691.086 268.01 692.681 267.189V271.992ZM714.64 265.788H702.387C702.626 266.848 703.213 267.714 704.147 268.386C705.081 269.058 706.141 269.394 707.326 269.394C709.399 269.394 711.689 268.813 714.196 267.651V271.462C713.296 271.929 712.202 272.356 710.915 272.744C709.639 273.12 708.009 273.308 706.027 273.308C703.885 273.308 702.062 272.909 700.558 272.111C699.054 271.314 697.926 270.231 697.174 268.864C696.434 267.497 696.063 265.948 696.063 264.216C696.063 262.507 696.434 260.98 697.174 259.636C697.926 258.28 699.054 257.22 700.558 256.457C702.062 255.682 703.885 255.295 706.027 255.295C707.44 255.295 708.801 255.603 710.111 256.218C711.433 256.822 712.515 257.819 713.358 259.208C714.213 260.587 714.64 262.37 714.64 264.558V265.788ZM708.864 262.746C708.864 261.63 708.585 260.741 708.026 260.08C707.479 259.408 706.688 259.072 705.651 259.072C704.625 259.072 703.794 259.414 703.156 260.097C702.529 260.769 702.216 261.652 702.216 262.746H708.864ZM749.279 273H743.109V271.428C742.46 271.975 741.77 272.425 741.041 272.778C740.323 273.131 739.327 273.308 738.05 273.308C736.786 273.308 735.544 272.994 734.325 272.368C733.106 271.741 732.103 270.767 731.317 269.445C730.531 268.112 730.138 266.438 730.138 264.421C730.138 262.837 730.434 261.356 731.027 259.978C731.619 258.588 732.548 257.46 733.812 256.594C735.077 255.728 736.626 255.295 738.461 255.295C739.6 255.295 740.523 255.42 741.229 255.671C741.936 255.922 742.562 256.241 743.109 256.628V249.313H749.279V273ZM743.109 267.463V260.815C742.391 260.416 741.827 260.131 741.417 259.96C741.018 259.79 740.546 259.704 739.999 259.704C739.03 259.704 738.221 260.114 737.572 260.935C736.934 261.755 736.615 262.871 736.615 264.284C736.615 265.822 736.951 266.944 737.623 267.651C738.307 268.346 739.099 268.693 739.999 268.693C740.739 268.693 741.337 268.579 741.793 268.352C742.249 268.112 742.688 267.816 743.109 267.463ZM772.434 265.788H760.18C760.42 266.848 761.006 267.714 761.941 268.386C762.875 269.058 763.935 269.394 765.119 269.394C767.193 269.394 769.483 268.813 771.99 267.651V271.462C771.089 271.929 769.996 272.356 768.708 272.744C767.432 273.12 765.803 273.308 763.821 273.308C761.679 273.308 759.856 272.909 758.352 272.111C756.848 271.314 755.72 270.231 754.968 268.864C754.228 267.497 753.857 265.948 753.857 264.216C753.857 262.507 754.228 260.98 754.968 259.636C755.72 258.28 756.848 257.22 758.352 256.457C759.856 255.682 761.679 255.295 763.821 255.295C765.233 255.295 766.595 255.603 767.905 256.218C769.227 256.822 770.309 257.819 771.152 259.208C772.007 260.587 772.434 262.37 772.434 264.558V265.788ZM766.658 262.746C766.658 261.63 766.378 260.741 765.82 260.08C765.273 259.408 764.481 259.072 763.445 259.072C762.419 259.072 761.588 259.414 760.95 260.097C760.323 260.769 760.01 261.652 760.01 262.746H766.658ZM794.376 259.311H791.334C792.405 260.245 792.94 261.39 792.94 262.746C792.94 263.464 792.786 264.153 792.479 264.814C792.183 265.475 791.738 266.062 791.146 266.574C790.565 267.087 789.841 267.508 788.975 267.839C788.121 268.158 787.141 268.352 786.036 268.42C784.612 268.477 783.9 268.859 783.9 269.565C783.9 269.838 783.991 270.038 784.173 270.163C784.356 270.288 784.64 270.385 785.028 270.454C785.426 270.511 786.093 270.579 787.027 270.659C788.087 270.75 789.072 270.909 789.984 271.137C790.895 271.365 791.744 271.844 792.53 272.573C793.316 273.302 793.709 274.344 793.709 275.7C793.709 276.783 793.413 277.74 792.821 278.571C792.24 279.403 791.294 280.052 789.984 280.52C788.674 280.987 786.942 281.22 784.788 281.22C781.689 281.22 779.411 280.804 777.953 279.973C776.506 279.141 775.782 278.03 775.782 276.64C775.782 276.264 775.873 275.831 776.056 275.341C776.249 274.851 776.648 274.379 777.252 273.923C777.867 273.467 778.756 273.16 779.918 273C779.508 272.852 779.155 272.567 778.858 272.146C778.562 271.713 778.414 271.263 778.414 270.795C778.414 270.192 778.619 269.593 779.029 269.001C779.451 268.409 780.129 268.027 781.063 267.856C779.764 267.514 778.642 266.87 777.696 265.925C776.751 264.979 776.278 263.754 776.278 262.25C776.278 261.111 776.494 260.114 776.927 259.26C777.371 258.405 777.981 257.71 778.756 257.175C779.53 256.639 780.431 256.246 781.456 255.996C782.481 255.734 783.604 255.603 784.823 255.603H794.376V259.311ZM787.574 262.25C787.574 261.373 787.272 260.673 786.668 260.148C786.076 259.613 785.409 259.345 784.669 259.345C783.723 259.345 782.977 259.664 782.43 260.302C781.895 260.94 781.627 261.612 781.627 262.319C781.627 262.809 781.741 263.264 781.969 263.686C782.208 264.108 782.538 264.449 782.96 264.711C783.393 264.962 783.905 265.087 784.498 265.087C785.387 265.087 786.121 264.808 786.703 264.25C787.284 263.692 787.574 263.025 787.574 262.25ZM788.805 276.247C788.805 275.484 788.394 274.988 787.574 274.76C786.765 274.544 785.928 274.436 785.062 274.436C783.638 274.436 782.607 274.584 781.969 274.88C781.342 275.188 781.029 275.672 781.029 276.333C781.029 277.631 782.339 278.281 784.959 278.281C786.133 278.281 787.067 278.11 787.762 277.768C788.457 277.438 788.805 276.931 788.805 276.247ZM814.797 256.542L812.524 262.712C811.59 261.823 810.644 261.379 809.687 261.379C808.821 261.379 808.069 261.675 807.431 262.268C806.805 262.849 806.201 263.931 805.62 265.515V273H799.467V255.603H805.62V259.807C806.007 258.77 806.691 257.762 807.67 256.782C808.65 255.791 809.801 255.295 811.123 255.295C811.818 255.295 812.421 255.397 812.934 255.603C813.458 255.808 814.079 256.121 814.797 256.542ZM834.5 265.788H822.247C822.486 266.848 823.073 267.714 824.007 268.386C824.941 269.058 826.001 269.394 827.186 269.394C829.259 269.394 831.549 268.813 834.056 267.651V271.462C833.156 271.929 832.062 272.356 830.775 272.744C829.498 273.12 827.869 273.308 825.887 273.308C823.745 273.308 821.922 272.909 820.418 272.111C818.914 271.314 817.786 270.231 817.034 268.864C816.294 267.497 815.923 265.948 815.923 264.216C815.923 262.507 816.294 260.98 817.034 259.636C817.786 258.28 818.914 257.22 820.418 256.457C821.922 255.682 823.745 255.295 825.887 255.295C827.3 255.295 828.661 255.603 829.971 256.218C831.293 256.822 832.375 257.819 833.218 259.208C834.073 260.587 834.5 262.37 834.5 264.558V265.788ZM828.724 262.746C828.724 261.63 828.445 260.741 827.886 260.08C827.339 259.408 826.548 259.072 825.511 259.072C824.485 259.072 823.654 259.414 823.016 260.097C822.389 260.769 822.076 261.652 822.076 262.746H828.724ZM856.784 265.788H844.53C844.77 266.848 845.356 267.714 846.291 268.386C847.225 269.058 848.285 269.394 849.469 269.394C851.543 269.394 853.833 268.813 856.34 267.651V271.462C855.439 271.929 854.346 272.356 853.058 272.744C851.782 273.12 850.153 273.308 848.171 273.308C846.029 273.308 844.206 272.909 842.702 272.111C841.198 271.314 840.07 270.231 839.318 268.864C838.577 267.497 838.207 265.948 838.207 264.216C838.207 262.507 838.577 260.98 839.318 259.636C840.07 258.28 841.198 257.22 842.702 256.457C844.206 255.682 846.029 255.295 848.171 255.295C849.583 255.295 850.945 255.603 852.255 256.218C853.577 256.822 854.659 257.819 855.502 259.208C856.357 260.587 856.784 262.37 856.784 264.558V265.788ZM851.008 262.746C851.008 261.63 850.728 260.741 850.17 260.08C849.623 259.408 848.831 259.072 847.795 259.072C846.769 259.072 845.938 259.414 845.299 260.097C844.673 260.769 844.36 261.652 844.36 262.746H851.008ZM874.829 267.924C874.829 269.519 874.243 270.818 873.069 271.821C871.907 272.812 870.175 273.308 867.874 273.308C866.586 273.308 865.441 273.194 864.439 272.966C863.436 272.727 862.342 272.39 861.158 271.958V267.583C862.194 268.175 863.094 268.625 863.858 268.933C864.621 269.24 865.458 269.394 866.37 269.394C867.908 269.394 868.677 268.972 868.677 268.129C868.677 267.845 868.563 267.594 868.335 267.377C868.119 267.15 867.731 266.899 867.173 266.625C866.626 266.341 865.891 266.005 864.969 265.617C863.829 265.116 862.861 264.444 862.063 263.601C861.266 262.757 860.867 261.726 860.867 260.507C860.867 259.641 861.129 258.81 861.653 258.012C862.189 257.215 862.992 256.565 864.063 256.064C865.134 255.551 866.427 255.295 867.942 255.295C868.307 255.295 868.768 255.323 869.326 255.38C869.896 255.426 870.608 255.557 871.463 255.773C872.329 255.99 873.149 256.298 873.924 256.696V260.952C873.559 260.735 873.251 260.553 873.001 260.405C872.762 260.257 872.437 260.091 872.027 259.909C871.617 259.727 871.132 259.567 870.574 259.431C870.027 259.283 869.463 259.208 868.882 259.208C868.176 259.208 867.692 259.345 867.43 259.619C867.167 259.892 867.036 260.166 867.036 260.439C867.036 260.724 867.173 260.992 867.447 261.242C867.72 261.481 868.33 261.783 869.275 262.148C870.642 262.672 871.736 263.213 872.556 263.771C873.377 264.318 873.958 264.922 874.3 265.583C874.653 266.244 874.829 267.024 874.829 267.924Z" fill="black"/>
<circle cx="192.447" cy="173.299" r="22.1511" fill="#112A46"/>
<circle cx="263.818" cy="165.915" r="24.6124" fill="#112A46"/>
<circle cx="128.456" cy="173.298" r="17.2287" fill="#112A46"/>
<circle cx="650.236" cy="143.763" r="46.7635" fill="#112A46"/>
<circle cx="537.018" cy="148.686" r="41.841" fill="#112A46"/>
<circle cx="438.569" cy="158.532" r="36.9185" fill="#112A46"/>
<circle cx="345.04" cy="133.919" r="31.9961" fill="#9EB700"/>
<circle cx="74.3062" cy="183.144" r="12.3062" fill="#112A46"/>
<circle cx="191.271" cy="173.778" r="22.2906" fill="#005F61"/>
<circle cx="263.094" cy="166.347" r="24.7674" fill="#005F61"/>
<circle cx="126.875" cy="173.778" r="17.3372" fill="#005F61"/>
<circle cx="651.942" cy="144.058" r="47.058" fill="#005F61"/>
<circle cx="538.011" cy="149.014" r="42.1045" fill="#005F61"/>
<circle cx="438.941" cy="158.921" r="37.1511" fill="#005F61"/>
<circle cx="344.825" cy="134.157" r="32.1976" fill="#A8005D"/>
<circle cx="72.3837" cy="183.691" r="12.3837" fill="#005F61"/>
</g>
<defs>
<clipPath id="clip0_255_595">
<rect width="887" height="373" fill="white"/>
</clipPath>
</defs>
</svg>
